<?xml version="1.0" encoding="UTF-8" standalone="no"?>
<svg
   viewBox="0 0 1000 1000"
   width="1000"
   height="1000"
   version="1.1"
   id="svg8"
   xmlns="http://www.w3.org/2000/svg"
   xmlns:svg="http://www.w3.org/2000/svg">
  <defs
     id="defs1" />
  <circle
     cx="500"
     cy="500"
     fill="#f2e8c9"
     id="circle1"
     style="stroke:#2e7a2a;stroke-width:1.5;stroke-dasharray:none;stroke-opacity:1"
     r="499.25" />
  <circle
     cx="500"
     cy="500"
     fill="#3fa63a"
     id="circle2"
     style="stroke-width:1.06383"
     r="457.44681" />
  <circle
     cx="500"
     cy="500"
     fill="none"
     stroke="#f2e8c9"
     stroke-width="9.27875"
     id="circle3"
     r="409.57443" />
  <g
     font-family="'Roboto Slab', Rockwell, 'Roboto Slab', Georgia, serif"
     font-weight="900"
     fill="#f2e8c9"
     id="g4"
     transform="matrix(1.0655689,0,0,1.0655689,-66.102262,-16.283199)">
    <g
       font-family="'Roboto Slab', Rockwell, 'Roboto Slab', Georgia, serif"
       font-weight="900"
       fill="#f2e8c9"
       id="g25"
       transform="translate(17.975424,5.3926272)">
      <path
         d="m 592.40861,368.82484 q 0,60.05859 -37.59766,88.62304 -37.35351,28.32032 -116.45508,28.32032 h -38.57422 v 71.5332 h 51.51368 v 62.5 H 257.44767 v -62.5 h 46.38672 V 314.38148 h -46.38672 v -62.5 h 178.95508 q 78.85742,0 117.43164,28.80859 38.57422,28.56445 38.57422,88.13477 z m -101.07422,0 q 0,-22.94922 -9.27735,-34.91211 -9.27734,-12.20703 -26.85546,-15.86914 -17.33399,-3.66211 -40.28321,-3.66211 h -15.13672 v 110.35156 h 15.13672 q 30.51758,0 47.11914,-6.10352 16.84571,-6.34765 22.94922,-18.31054 6.34766,-11.96289 6.34766,-31.49414 z"
         id="path24"
         style="font-size:500px;letter-spacing:0;text-anchor:middle;fill:#2e7a2a;fill-opacity:1"
         aria-label="P" />
      <path
         d="m 829.58041,426.2837 q 0,60.05859 -37.59762,88.62304 -37.35351,28.32032 -116.45508,28.32032 h -38.57422 v 71.5332 h 51.51368 v 62.5 H 494.61951 v -62.5 h 46.38672 V 371.84034 h -46.38672 v -62.5 h 178.95508 q 78.85742,0 117.43164,28.80859 38.57418,28.56445 38.57418,88.13477 z m -101.07418,0 q 0,-22.94922 -9.27735,-34.91211 -9.27734,-12.20703 -26.85546,-15.86914 -17.33399,-3.66211 -40.28321,-3.66211 H 636.95349 V 482.1919 h 15.13672 q 30.51758,0 47.11914,-6.10352 16.84571,-6.34765 22.94922,-18.31054 6.34766,-11.96289 6.34766,-31.49414 z"
         id="path25"
         style="font-size:500px;letter-spacing:0;text-anchor:middle;fill:#2e7a2a;fill-opacity:1"
         aria-label="P" />
    </g>
    <path
       d="m 598.13754,360.60437 q 0,60.05859 -37.59766,88.62304 -37.35351,28.32032 -116.45508,28.32032 h -38.57422 v 71.5332 h 51.51368 v 62.5 H 263.1766 v -62.5 h 46.38672 V 306.16101 H 263.1766 v -62.5 h 178.95508 q 78.85742,0 117.43164,28.80859 38.57422,28.56445 38.57422,88.13477 z m -101.07422,0 q 0,-22.94922 -9.27735,-34.91211 -9.27734,-12.20703 -26.85546,-15.86914 -17.33399,-3.66211 -40.28321,-3.66211 h -15.13672 v 110.35156 h 15.13672 q 30.51758,0 47.11914,-6.10352 16.84571,-6.34765 22.94922,-18.31054 6.34766,-11.96289 6.34766,-31.49414 z"
       id="text3"
       style="font-size:500px;letter-spacing:0;text-anchor:middle"
       aria-label="P" />
    <path
       d="m 835.30938,418.06323 q 0,60.05859 -37.59766,88.62304 -37.35351,28.32032 -116.45508,28.32032 h -38.57422 v 71.5332 h 51.51368 v 62.5 H 500.34844 v -62.5 h 46.38672 V 363.61987 h -46.38672 v -62.5 h 178.95508 q 78.85742,0 117.43164,28.80859 38.57422,28.56445 38.57422,88.13477 z m -101.07422,0 q 0,-22.94922 -9.27735,-34.91211 -9.27734,-12.20703 -26.85546,-15.86914 -17.33399,-3.66211 -40.28321,-3.66211 h -15.13672 v 110.35156 h 15.13672 q 30.51758,0 47.11914,-6.10352 16.84571,-6.34765 22.94922,-18.31054 6.34766,-11.96289 6.34766,-31.49414 z"
       id="text4"
       style="font-size:500px;letter-spacing:0;text-anchor:middle"
       aria-label="P" />
  </g>
  <path
     style="font-weight:800;font-size:62px;font-family:'Roboto Slab', Rockwell, Georgia, serif;letter-spacing:6;text-anchor:middle;fill:#f2e8c9;stroke-width:1.06383"
     d="m 297.45125,732.09736 q -6.13281,5.01564 -12.18951,3.5619 -6.01137,-1.4492 -12.61736,-9.52656 l -3.22142,-3.93894 -7.30452,5.97393 4.30204,5.26024 -6.38209,5.21954 -16.18873,-19.79449 6.38211,-5.21954 3.87387,4.73672 24.80543,-20.28686 -3.87388,-4.73673 6.38212,-5.21953 14.94498,18.27375 q 6.58559,8.05243 6.86528,14.39724 0.3046,6.32445 -5.77832,11.29933 z m -8.44097,-10.32106 q 2.34342,-1.91655 2.79022,-3.86294 0.47172,-1.96679 -0.62232,-4.06759 -1.07365,-2.07586 -2.9902,-4.4193 l -1.26409,-1.54565 -11.26842,9.21573 1.2641,1.54567 q 2.54862,3.11626 4.5583,4.30179 2.05502,1.19005 3.78631,0.81427 1.75169,-0.35088 3.7461,-1.98198 z m 6.2256,20.87763 q 4.73795,-5.65194 10.95015,-7.79867 6.21219,-2.14675 12.90848,-0.60974 6.74165,1.53301 12.8625,6.66407 6.12086,5.13105 8.75798,11.46014 2.68245,6.32509 1.60788,12.82068 -1.04989,6.51624 -5.74647,12.11882 -4.75864,5.67659 -10.99152,7.84803 -6.20822,2.19209 -12.92917,0.6344 -6.69627,-1.53699 -12.7678,-6.62666 -5.94809,-4.98624 -8.67991,-11.3527 -2.70715,-6.3458 -1.7313,-12.92412 1.00054,-6.55765 5.75918,-12.23425 z m 31.01592,25.91625 q 2.83449,-3.38129 3.91769,-7.18003 1.1039,-3.82344 0.12474,-7.41791 -0.93381,-3.59844 -4.06826,-6.22605 -3.13449,-2.62761 -6.84071,-2.91881 -3.68552,-0.3159 -7.28219,1.41788 -3.5513,1.72978 -6.3858,5.11106 -2.97931,3.55405 -4.0999,7.44753 -1.07522,3.88949 -0.12075,7.46326 0.97517,3.54911 4.01093,6.09393 3.13448,2.6276 6.824,2.98886 3.73488,0.35728 7.32755,-1.42185 3.61337,-1.80381 6.5927,-5.35787 z m 56.0551,15.89085 -5.49466,-2.97409 3.92456,-7.25068 19.06138,10.31729 -3.92455,7.2507 -5.94784,-3.21935 -19.33154,35.71532 -9.45989,-5.12032 -1.32731,-41.66052 -13.06143,24.13121 5.35305,2.89744 -3.92456,7.25069 -18.6932,-10.11801 3.92457,-7.25069 5.74957,3.11205 15.25367,-28.18142 -5.74956,-3.11205 3.92455,-7.25068 17.92847,9.70408 1.27812,35.18862 z m 21.75326,43.3397 15.15692,4.94069 2.88458,-8.84921 7.77748,2.53522 -5.43975,16.68794 -37.29523,-12.15706 2.55517,-7.83876 31.794,-23.3404 -12.8298,-4.18212 -2.71488,8.32865 -7.7775,-2.53521 5.27007,-16.1674 35.61114,11.60811 -2.26573,6.95077 z m 57.70957,-18.60703 -5.63883,31.54473 7.35515,1.31479 -1.4508,8.11603 -27.01118,-4.82842 1.45081,-8.11604 7.19664,1.28645 5.63883,-31.54474 -7.19664,-1.28645 1.45078,-8.11602 27.01117,4.82843 -1.45078,8.11603 z m 76.70608,9.29976 q 0.31452,7.91638 -4.49166,11.87838 -4.7753,3.92854 -15.20176,4.34278 l -5.08449,0.20201 0.37461,9.42885 6.79005,-0.26976 0.32733,8.23818 -25.55125,1.01514 -0.3273,-8.23817 6.11427,-0.24293 -1.27215,-32.01948 -6.11425,0.24291 -0.32732,-8.23818 23.58824,-0.93716 q 10.39426,-0.41296 15.62965,3.18231 5.23407,3.5631 5.54603,11.41512 z m -13.32269,0.52931 q -0.12017,-3.02496 -1.40567,-4.55321 -1.28678,-1.56043 -3.62295,-1.95108 -2.30399,-0.39195 -5.32894,-0.27176 l -1.99518,0.0793 0.57788,14.54553 1.99519,-0.0793 q 4.02255,-0.15981 6.17885,-1.05127 2.18722,-0.9249 2.92908,-2.53371 0.77404,-1.61007 0.67174,-4.18451 z m 20.42,7.5934 q -1.66216,-7.18537 0.36225,-13.43851 2.02441,-6.25314 7.28203,-10.6758 5.28172,-4.46131 13.06329,-6.26136 7.78154,-1.80006 14.42315,-0.0969 6.66572,1.66452 11.20642,6.43205 4.57206,4.76027 6.2197,11.88289 1.66941,7.21676 -0.34775,13.50127 -1.98577,6.27725 -7.27476,10.70719 -5.25762,4.42264 -12.97642,6.2082 -7.5619,1.74924 -14.2904,0.0993 -6.69708,-1.65726 -11.36328,-6.39575 -4.63483,-4.74574 -6.30423,-11.9625 z m 39.36389,-9.17191 q -0.99439,-4.29868 -3.37619,-7.45001 -2.38903,-3.18272 -5.84891,-4.56407 -3.43577,-1.42 -7.42068,-0.49819 -3.98491,0.92181 -6.44806,3.70635 -2.47041,2.75317 -3.25046,6.66898 -0.75593,3.87717 0.23846,8.17583 1.04518,4.51833 3.48013,7.75655 2.45905,3.19956 5.88755,4.58818 3.42126,1.35723 7.28067,0.46448 3.98489,-0.92183 6.49394,-3.65088 2.53317,-2.76768 3.27458,-6.70761 0.73416,-3.97128 -0.31103,-8.48961 z m 30.54312,-27.92211 12.06676,29.68602 6.92177,-2.81356 3.10462,7.63781 -25.41959,10.33255 -3.10461,-7.63781 6.77259,-2.75292 -12.06679,-29.68601 -6.77257,2.75291 -3.10462,-7.63781 25.41958,-10.33254 3.10461,7.6378 z m 42.81999,-22.96342 -5.35699,3.21548 -4.2431,-7.06901 18.58374,-11.15473 4.24311,7.06901 -5.79878,3.48069 20.9006,34.82035 -9.22283,5.53592 -36.53432,-20.065 14.12159,23.52654 5.21892,-3.13261 4.2431,7.069 -18.22477,10.93926 -4.24309,-7.069 5.60547,-3.36466 -16.49175,-27.47522 -5.60551,3.36466 -4.24309,-7.06902 17.4792,-10.49174 30.9387,16.8128 z m 49.05354,-24.99208 -7.47558,-8.43647 -5.64038,4.99795 21.25203,23.9837 5.42344,-4.80575 5.46786,6.17068 -20.36805,18.04822 -5.46787,-6.17069 5.51987,-4.89117 -21.25203,-23.98368 -5.51987,4.89118 7.47559,8.43648 -6.17068,5.46785 -12.94345,-14.60715 32.87814,-29.13345 12.94345,14.60714 z m 12.62246,-37.47475 -3.10397,-2.56356 5.2502,-6.35692 11.32323,9.35191 -5.25019,6.3569 q -3.05963,-1.85863 -5.57384,-1.59604 -2.51854,0.21727 -4.32329,2.40247 -1.27153,1.53956 -1.3048,3.34996 -0.0333,1.81038 1.2828,2.89734 1.16709,0.96389 2.58561,0.96589 1.41851,0.002 2.91685,-0.59837 1.4735,-0.6209 4.24669,-2.00625 l 1.89664,-0.9815 q 6.21673,-3.17777 11.16858,-3.30678 4.97233,-0.15384 9.29305,3.41465 5.14016,4.24527 5.70426,9.68178 0.53929,5.41599 -3.58293,10.40716 -4.01967,4.867 -9.90536,4.5589 l 3.20326,2.64561 -5.25016,6.3569 -12.71382,-10.50039 5.25019,-6.3569 q 3.46667,2.52898 6.43541,2.47468 2.9644,-0.0997 5.07679,-2.6573 1.41508,-1.71338 1.2119,-3.84438 -0.18268,-2.15582 -1.8464,-3.52989 -1.68856,-1.39458 -4.20711,-1.17731 -2.52284,0.17191 -6.62487,2.25588 -7.00693,3.52761 -11.88427,3.71815 -4.85683,0.1657 -8.50708,-2.84907 -2.85564,-2.35847 -4.1277,-5.62287 -1.27205,-3.2644 -0.70566,-6.6812 0.56206,-3.46214 2.81799,-6.19362 1.80476,-2.18519 4.17532,-3.23477 2.37055,-1.04957 5.07268,-0.78106 z"
     id="text5"
     aria-label="PONZI POINTS" />
  <g
     fill="#f2e8c9"
     id="g8"
     transform="matrix(1.0638298,0,0,1.0638298,-20.025072,-31.91488)">
    <path
       d="m 180.97124,417.62465 7,23 23,7 -23,7 -7,23 -7,-23 -23,-7 23,-7 z"
       id="path5" />
    <path
       d="m 204.51497,672.26049 4,12 12,4 -12,4 -4,12 -4,-12 -12,-4 12,-4 z"
       id="path6" />
    <path
       d="m 647.00729,202.21204 7,25 25,7 -25,7 -7,25 -7,-25 -25,-7 25,-7 z"
       id="path7" />
    <path
       d="m 767.9248,636.66219 5,14 14,5 -14,5 -5,14 -5,-14 -14,-5 14,-5 z"
       id="path8" />
  </g>
</svg>
