<?xml version="1.0" encoding="utf-8"?>
<!-- Generator: Adobe Illustrator 28.1.0, SVG Export Plug-In . SVG Version: 6.00 Build 0)  -->
<svg version="1.1" xmlns="http://www.w3.org/2000/svg" xmlns:xlink="http://www.w3.org/1999/xlink" x="0px" y="0px"
	 viewBox="0 0 1423.6 200" style="enable-background:new 0 0 1423.6 200;" xml:space="preserve">
<style type="text/css">
	.st0{fill:#29A3DA;}
	.st1{fill:url(#SVGID_1_);}
	.st2{fill:url(#SVGID_00000181769152715805177300000010356409627546218899_);}
	.st3{fill:#FFFFFF;}
</style>
<g id="Content">
</g>
<g id="wordmark">
</g>
<g id="Infinity_mark">
	<g>
		<path class="st0" d="M347.8,166.2c-28.9,0-59.4-18.9-74.4-32.6c-16.4-15-61.4-63.8-61.6-64.1C182.2,36.6,142.5,0,102.9,0
			C55.2,0,13.6,33,2.8,76.8c0.8-2.9,16-43,72.9-43c28.9,0,59.4,18.9,74.4,32.6c16.4,15,61.4,63.8,61.6,64.1
			C241.3,163.4,281,200,320.6,200c47.7,0,89.3-33,100.1-76.8C419.9,126.1,404.7,166.2,347.8,166.2z"/>
		<linearGradient id="SVGID_1_" gradientUnits="userSpaceOnUse" x1="156.3071" y1="186.918" x2="17.0107" y2="42.6724">
			<stop  offset="0.2195" style="stop-color:#E51E79"/>
			<stop  offset="0.892" style="stop-color:#522780"/>
		</linearGradient>
		<path class="st1" d="M211.8,130.5c-0.1-0.1-13.1-14.2-27.6-29.5c-7.9,9.3-19.2,22-32.2,33.4c-24.3,21.3-40,25.7-49,25.7
			c-34,0-61.8-27-61.8-60.1c0-33,27.7-59.9,61.8-60.1c1.2,0,2.7,0.1,4.5,0.4c-10.2-3.9-21.1-6.5-31.7-6.5c-56.9,0-72.1,40.1-72.9,43
			c0,0,0,0,0,0C1,84.2,0,92,0,100c0,55.1,45.5,100,102.2,100c23.6,0,50.1-12.1,77.4-36c12.9-11.3,24.1-23.4,32.5-33.1
			C212,130.7,211.9,130.6,211.8,130.5z"/>
		
			<linearGradient id="SVGID_00000034066073503454222760000008527967529568086967_" gradientUnits="userSpaceOnUse" x1="1673.8754" y1="1042.7167" x2="1534.579" y2="898.471" gradientTransform="matrix(-1 0 0 -1 1941.0081 1055.8851)">
			<stop  offset="0.21" style="stop-color:#E95A24"/>
			<stop  offset="0.6841" style="stop-color:#F3A83B"/>
		</linearGradient>
		<path style="fill:url(#SVGID_00000034066073503454222760000008527967529568086967_);" d="M211.8,69.5c0.1,0.1,13.1,14.2,27.6,29.5
			c7.9-9.3,19.2-22,32.2-33.4c24.3-21.3,40-25.7,49-25.7c34,0,61.8,27,61.8,60.1c0,33-27.7,59.9-61.8,60.1c-1.2,0-2.7-0.1-4.5-0.4
			c10.2,3.9,21.1,6.5,31.7,6.5c56.9,0,72.1-40.1,72.9-43c0,0,0,0,0,0c1.8-7.5,2.8-15.2,2.8-23.2c0-55.1-46.2-100-102.9-100
			c-23.6,0-49.4,12.1-76.7,36c-12.9,11.3-24.1,23.4-32.5,33.1C211.5,69.3,211.7,69.4,211.8,69.5z"/>
	</g>
	<g>
		<path class="st3" d="M479.6,174.6v-61.3h16.5v61.3H479.6z"/>
		<path class="st3" d="M547.1,174.6l-21.3-36.4v36.4h-16v-61.3h18.7l19.1,33.3v-33.3h16.1v61.3H547.1z"/>
		<path class="st3" d="M606.3,128.6v46H590v-46h-17.6v-15.3H624v15.3H606.3z"/>
		<path class="st3" d="M632.6,174.6v-61.3h39.3v14h-23.2v9.7h21.1v13.5h-21.1v9.9h23.4v14.3H632.6z"/>
		<path class="st3" d="M683.6,174.6v-61.3h25.9c12.5,0,20.6,8.3,20.6,19.7c0,8.3-4.6,14.4-11.3,17.1l11.6,24.5h-17.6l-9.7-22.2h-3.4
			v22.2H683.6z M706.4,139.9c4.8,0,7.4-2.8,7.4-6.7s-2.5-6.6-7.4-6.6h-6.7v13.2H706.4z"/>
		<path class="st3" d="M777.8,174.6l-21.3-36.4v36.4h-16v-61.3h18.7l19.1,33.3v-33.3h16.1v61.3H777.8z"/>
		<path class="st3" d="M808.1,174.6v-61.3h39.3v14h-23.2v9.7h21.1v13.5h-21.1v9.9h23.4v14.3H808.1z"/>
		<path class="st3" d="M890.6,128.6v46h-16.3v-46h-17.6v-15.3h51.6v15.3H890.6z"/>
		<path class="st3" d="M948,144c0,10.2,7.3,16.1,14.7,16.1c8.5,0,12.1-5.3,13.4-9.6l15.2,4.4c-2.4,9.1-10.6,21-28.7,21
			c-17,0-31.4-12.4-31.4-31.8c0-19.5,14.6-32.1,31.2-32.1c17.6,0,25.7,10.7,28.2,19.9l-15,5.1c-1.1-4.1-4.4-9.4-13.1-9.4
			C955.7,127.5,948,132.8,948,144z"/>
		<path class="st3" d="M1028,112c16.9,0,31.5,12.1,31.5,32s-14.6,32-31.5,32c-16.9,0-31.5-12.1-31.5-32S1011.1,112,1028,112z
			 M1028,160.3c7.2,0,14.8-5.1,14.8-16.4c0-11.2-7.6-16.3-14.8-16.3c-7.2,0-14.8,5.1-14.8,16.3
			C1013.2,155.2,1020.8,160.3,1028,160.3z"/>
		<path class="st3" d="M1123.6,174.6v-38l-13.4,38h-12.8l-13.3-37.5v37.5h-15.4v-61.3h21.5l13.8,37.4l13.1-37.4h22.1v61.3H1123.6z"
			/>
		<path class="st3" d="M1169,153.6v20.9h-16.1v-61.3h24.5c12.8,0,21.5,8.4,21.5,20.2c0,12.1-8.7,20.2-21.5,20.2H1169z M1175.3,140.2
			c4.2,0,7.4-2.5,7.4-6.7c0-4.3-3.1-6.7-7.4-6.7h-6.2v13.4H1175.3z"/>
		<path class="st3" d="M1207.3,152.1v-38.8h16.2v38.3c0,6.1,3.1,9.3,8.5,9.3c5.4,0,8.4-3.2,8.4-9.3v-38.3h16.2v38.8
			c0,15.4-10.3,23.9-24.6,23.9S1207.3,167.5,1207.3,152.1z"/>
		<path class="st3" d="M1299.1,128.6v46h-16.3v-46h-17.6v-15.3h51.6v15.3H1299.1z"/>
		<path class="st3" d="M1325.5,174.6v-61.3h39.3v14h-23.2v9.7h21.1v13.5h-21.1v9.9h23.4v14.3H1325.5z"/>
		<path class="st3" d="M1376.9,174.6v-61.3h25.9c12.5,0,20.6,8.3,20.6,19.7c0,8.3-4.6,14.4-11.3,17.1l11.6,24.5h-17.6l-9.7-22.2
			h-3.4v22.2H1376.9z M1399.8,139.9c4.8,0,7.4-2.8,7.4-6.7s-2.5-6.6-7.4-6.6h-6.7v13.2H1399.8z"/>
	</g>
	<g>
		<path class="st3" d="M501.1,9.6c11.9,0,18.8,7,18.8,16.9c0,6.7-3.9,11.4-9.3,13.5c7.1,1.8,11.3,8.1,11.3,15c0,9.9-7.8,17-19.3,17
			h-21.8V9.6H501.1z M500.1,36.9c7,0,11.1-4.1,11.1-9.9c0-5.9-4.3-9.8-11.4-9.8h-10.4v19.7H500.1z M501.3,64.4
			c7,0,11.7-3.9,11.7-9.9c0-6-3.8-10.2-11.4-10.2h-12.3v20.2H501.3z"/>
		<path class="st3" d="M548.1,73.3c-9.9,0-15.8-7.4-15.8-17V29.7h8.3v25.4c0,5.8,2.6,10.9,9.6,10.9c6.7,0,10-4.4,10-10.8V29.7h8.3
			v34.5c0,3.3,0.3,6.3,0.4,7.8H561c-0.2-1-0.4-3.3-0.4-5.1C558.4,71.3,553.1,73.3,548.1,73.3z"/>
		<path class="st3" d="M586,7.7c3.3,0,6,2.6,6,6c0,3.3-2.6,5.9-6,5.9c-3.3,0-5.9-2.6-5.9-5.9C580.1,10.3,582.7,7.7,586,7.7z
			 M581.9,72V29.7h8.2V72H581.9z"/>
		<path class="st3" d="M603.5,72V8.3h8.3V72H603.5z"/>
		<path class="st3" d="M636.7,29.7h9.2v7.5h-9.2v22c0,3.9,1.6,5.8,5.9,5.8c1.1,0,2.6-0.2,3.3-0.4v7c-0.7,0.3-2.8,0.8-5.6,0.8
			c-7.2,0-11.8-4.4-11.8-12.1V37.2h-8.1v-7.5h2.3c4.6,0,6.5-2.8,6.5-6.5v-6.9h7.6V29.7z"/>
		<path class="st3" d="M718.3,50.8c0,12.9-9,22.5-21.6,22.5c-12.7,0-21.6-9.6-21.6-22.5c0-12.8,9-22.4,21.6-22.4
			C709.4,28.4,718.3,37.9,718.3,50.8z M709.9,50.8c0-9.8-6.2-15-13.2-15c-7,0-13.2,5.3-13.2,15c0,9.9,6.2,15.1,13.2,15.1
			C703.7,65.9,709.9,60.6,709.9,50.8z"/>
		<path class="st3" d="M737.2,72h-8.3V29.7h8.1v6.1c3.1-5.3,8.1-7.3,13-7.3c10.1,0,15.1,7.3,15.1,16.7V72h-8.3V46.6
			c0-5.9-2.5-10.6-9.9-10.6c-6.5,0-9.9,5.2-9.9,11.6V72z"/>
		<path class="st3" d="M810.1,29.7h9.2v7.5h-9.2v22c0,3.9,1.6,5.8,5.9,5.8c1.1,0,2.6-0.2,3.3-0.4v7c-0.7,0.3-2.8,0.8-5.6,0.8
			c-7.2,0-11.8-4.4-11.8-12.1V37.2h-8.1v-7.5h2.3c4.6,0,6.5-2.8,6.5-6.5v-6.9h7.6V29.7z"/>
		<path class="st3" d="M837.4,72h-8.3V8.3h8.3v26.3c3.1-4.5,8-6.2,12.8-6.2c10.1,0,15.1,7.3,15.1,16.7V72h-8.3V46.6
			c0-5.9-2.5-10.6-9.9-10.6c-6.3,0-9.7,4.9-9.9,11.2V72z"/>
		<path class="st3" d="M915.8,59.9c-2.4,7.5-9.2,13.4-19,13.4c-11.4,0-21.3-8.3-21.3-22.6c0-13.3,9.6-22.4,20.2-22.4
			c13,0,20.3,9,20.3,22.2c0,1.1-0.1,2.1-0.2,2.6H884c0.2,7.6,5.6,12.8,12.8,12.8c6.9,0,10.3-3.8,11.9-8.5L915.8,59.9z M907.5,46.5
			c-0.2-6.1-4.1-10.8-11.6-10.8c-7,0-11.2,5.4-11.5,10.8H907.5z"/>
	</g>
</g>
</svg>
